<?xml version="1.0" standalone="no"?>
<!DOCTYPE svg PUBLIC "-//W3C//DTD SVG 20010904//EN"
 "http://www.w3.org/TR/2001/REC-SVG-20010904/DTD/svg10.dtd">
<svg version="1.0" xmlns="http://www.w3.org/2000/svg"
 width="740.000000pt" height="940.000000pt" viewBox="0 0 740.000000 940.000000"
 preserveAspectRatio="xMidYMid meet">

<g transform="translate(0.000000,940.000000) scale(0.100000,-0.100000)"
fill="#000000" stroke="none">
<path d="M3600 9086 c0 -2 9 -6 20 -9 11 -3 18 -1 14 4 -5 9 -34 13 -34 5z"/>
<path d="M3588 9027 c-3 -16 -1 -27 6 -27 6 0 5 -4 -2 -9 -9 -5 -13 -22 -11
-44 2 -20 0 -39 -4 -43 -4 -4 1 -13 10 -19 15 -11 15 -15 3 -30 -7 -9 -14 -43
-16 -78 -1 -34 -4 -75 -7 -92 -4 -16 -4 -24 -1 -17 10 22 21 13 21 -18 0 -16
-5 -30 -10 -30 -5 0 -4 -7 3 -15 10 -12 10 -15 -1 -15 -9 0 -10 -3 -3 -8 7 -4
10 -46 8 -117 -4 -134 -5 -266 -4 -402 0 -106 10 -133 48 -133 29 1 70 43 73
75 2 17 8 36 14 44 7 11 7 13 -2 7 -15 -9 -16 -5 -4 28 7 17 7 26 -2 30 -9 3
-9 5 1 5 6 1 12 8 12 17 0 9 -5 12 -12 8 -10 -6 -10 -4 0 7 6 7 12 24 11 39
l-1 25 -9 -25 c-7 -21 -8 -19 -4 10 6 39 6 42 4 85 -1 17 0 35 1 40 1 6 2 74
1 153 -1 111 2 141 12 136 9 -6 9 -4 1 7 -7 8 -15 48 -18 89 -4 41 -9 77 -12
79 -2 2 2 11 9 19 6 9 7 13 1 9 -17 -10 -38 87 -24 113 13 25 7 51 -12 48 -11
-3 -14 2 -17 35 0 7 -10 13 -21 14 -11 1 -18 -2 -15 -8 4 -5 4 -9 0 -9 -3 0
-9 10 -14 22 -8 21 -8 21 -13 -5z m32 -71 c-5 -5 -10 -19 -11 -30 0 -19 -1
-19 -10 2 -11 28 -6 39 16 39 11 0 12 -4 5 -11z m40 -18 c0 -19 -2 -20 -10 -8
-13 19 -13 30 0 30 6 0 10 -10 10 -22z m-20 -8 c0 -5 -5 -10 -11 -10 -5 0 -7
5 -4 10 3 6 8 10 11 10 2 0 4 -4 4 -10z m-50 -230 c0 -5 -5 -10 -11 -10 -5 0
-7 5 -4 10 3 6 8 10 11 10 2 0 4 -4 4 -10z m41 -444 c-6 -14 -15 -26 -20 -26
-5 0 -3 14 6 31 18 36 28 33 14 -5z"/>
<path d="M3681 8894 c0 -11 3 -14 6 -6 3 7 2 16 -1 19 -3 4 -6 -2 -5 -13z"/>
<path d="M3696 8847 c3 -10 9 -15 12 -12 3 3 0 11 -7 18 -10 9 -11 8 -5 -6z"/>
<path d="M4866 8685 c-12 -31 -27 -62 -22 -44 3 12 -1 15 -14 12 -11 -3 -16
-11 -13 -20 4 -9 -2 -16 -16 -20 -13 -3 -30 -23 -42 -49 -11 -23 -27 -45 -35
-48 -8 -3 -14 -14 -14 -24 0 -11 -7 -25 -15 -32 -8 -7 -15 -18 -15 -26 0 -7
-9 -16 -20 -19 -11 -3 -20 -13 -20 -22 0 -8 -15 -29 -32 -45 -18 -17 -27 -27
-20 -23 6 3 12 1 12 -4 0 -6 -4 -11 -10 -11 -5 0 -10 -8 -10 -19 0 -10 -6 -24
-14 -30 -11 -10 -15 -8 -18 6 -3 15 -5 14 -10 -5 -3 -12 -2 -20 3 -16 5 3 9 2
9 -1 0 -13 -23 -50 -36 -58 -8 -4 -14 -13 -14 -20 0 -7 4 -6 10 3 5 8 10 10
10 4 0 -6 -7 -17 -15 -24 -8 -7 -13 -16 -10 -20 7 -12 -6 -41 -15 -35 -5 3 -6
-4 -3 -14 3 -11 12 -22 22 -24 11 -3 9 -5 -6 -6 -13 0 -23 5 -23 12 -1 14 -28
-44 -41 -86 -7 -26 -7 -27 9 -16 14 11 14 10 -1 -8 -13 -14 -17 -29 -12 -44 5
-14 4 -19 -4 -15 -7 5 -9 1 -4 -11 11 -32 25 -43 53 -43 45 0 81 46 116 147
29 81 150 292 217 376 16 21 19 30 9 36 -9 5 -6 11 12 19 17 8 23 17 19 30 -3
13 4 26 21 40 16 12 24 26 20 35 -3 8 0 18 5 22 6 3 9 11 6 16 -4 5 -1 9 5 9
6 0 8 5 5 10 -5 8 -11 7 -21 -1 -12 -10 -13 -9 -8 5 3 9 9 16 13 16 3 0 7 18
8 40 1 22 -2 38 -7 35 -5 -3 -10 3 -13 12 -3 16 -5 16 -11 -2z m-86 -146 c-7
-11 -14 -19 -16 -16 -7 7 7 37 17 37 6 0 5 -9 -1 -21z m66 -27 c-18 -16 -18
-16 -6 6 6 13 14 21 18 18 3 -4 -2 -14 -12 -24z m-104 -24 c-7 -7 -12 -8 -12
-2 0 14 12 26 19 19 2 -3 -1 -11 -7 -17z m-101 -171 c-10 -9 -11 -8 -5 6 3 10
9 15 12 12 3 -3 0 -11 -7 -18z"/>
<path d="M2395 8646 c0 -13 3 -22 6 -20 4 2 13 -3 20 -12 9 -11 9 -18 2 -22
-7 -5 5 -39 33 -96 24 -49 59 -131 79 -182 20 -51 46 -105 58 -120 12 -16 20
-37 19 -47 -2 -12 1 -17 7 -13 18 11 34 -4 21 -19 -15 -18 -2 -68 16 -61 8 3
14 1 14 -4 0 -6 -5 -10 -12 -10 -6 0 -8 -3 -4 -7 4 -5 13 -8 19 -8 7 0 12 -9
13 -20 0 -11 10 -42 22 -68 12 -27 22 -53 22 -59 0 -27 34 -77 61 -88 24 -10
33 -10 54 4 29 19 31 39 10 80 -8 15 -12 32 -9 38 8 12 -47 188 -58 188 -5 0
-7 4 -4 9 3 5 -1 14 -9 21 -17 14 -15 -1 9 -70 23 -65 20 -72 -9 -18 -14 26
-25 57 -25 70 0 13 -9 29 -21 36 -16 10 -18 16 -9 27 8 10 8 15 -2 22 -8 4
-26 38 -42 75 -15 36 -34 74 -41 85 -11 15 -11 20 0 33 12 14 11 23 -9 67 -24
52 -46 75 -46 50 0 -8 8 -25 18 -38 24 -31 34 -58 26 -71 -6 -9 -33 33 -37 57
-1 5 -6 15 -12 21 -5 6 -46 52 -89 102 -44 51 -82 92 -85 92 -4 0 -6 -11 -6
-24z m225 -415 c0 -5 -7 -12 -16 -15 -14 -5 -15 -4 -4 9 14 17 20 19 20 6z"/>
<path d="M4911 8604 c0 -11 3 -14 6 -6 3 7 2 16 -1 19 -3 4 -6 -2 -5 -13z"/>
<path d="M2655 8370 c9 -31 25 -50 25 -29 0 7 -8 23 -16 34 -16 19 -16 19 -9
-5z"/>
<path d="M2686 8305 c4 -8 8 -15 10 -15 2 0 4 7 4 15 0 8 -4 15 -10 15 -5 0
-7 -7 -4 -15z"/>
<path d="M2736 8197 c3 -10 9 -15 12 -12 3 3 0 11 -7 18 -10 9 -11 8 -5 -6z"/>
<path d="M5800 8030 c0 -6 -4 -9 -9 -6 -5 3 -29 -5 -55 -19 -25 -13 -46 -21
-46 -17 0 4 -5 -1 -11 -10 -5 -10 -19 -18 -30 -18 -35 0 -203 -130 -188 -145
3 -2 21 10 40 28 74 70 177 138 139 92 -6 -8 -9 -19 -5 -24 4 -7 0 -8 -11 -4
-13 5 -15 2 -10 -14 6 -18 0 -22 -37 -32 -44 -11 -77 -31 -199 -124 -34 -27
-49 -35 -31 -18 33 31 27 57 -6 27 -10 -9 -22 -16 -28 -16 -14 0 -25 -29 -16
-43 5 -8 2 -8 -8 0 -13 10 -22 7 -50 -16 -40 -34 -35 -52 5 -20 46 36 38 15
-9 -25 -25 -20 -45 -44 -45 -52 0 -9 -5 -12 -11 -8 -6 3 -15 0 -20 -7 -13 -20
-11 -29 4 -23 8 3 18 -7 25 -23 11 -26 11 -27 -3 -9 -8 11 -15 15 -15 9 0 -13
31 -41 50 -43 50 -7 74 2 126 51 30 29 54 56 54 62 0 5 -7 4 -15 -3 -13 -11
-14 -10 -9 4 4 10 13 15 21 12 16 -6 95 62 87 75 -7 13 42 56 104 91 28 17 52
37 52 45 0 10 6 12 21 8 14 -5 19 -3 15 3 -3 6 -2 13 4 17 5 3 10 1 10 -6 0
-8 6 -7 18 3 9 9 32 23 50 33 19 9 31 19 28 23 -4 3 -12 0 -18 -6 -28 -28 -23
-9 5 21 16 17 34 31 39 29 6 -1 8 3 5 10 -2 7 -10 12 -16 11 -17 -4 -13 4 12
30 13 12 29 21 35 19 5 -1 13 2 17 7 4 7 0 8 -11 4 -13 -5 -15 -3 -9 8 4 8 5
11 0 7 -4 -4 -16 -3 -26 3 -13 7 -19 6 -19 -1z m24 -25 c-4 -8 -11 -12 -16 -9
-6 4 -5 10 3 15 19 12 19 11 13 -6z"/>
<path d="M5417 7809 c-9 -6 -15 -14 -12 -19 3 -4 -2 -10 -10 -14 -8 -3 -15
-10 -15 -16 0 -6 16 2 35 17 46 37 47 58 2 32z"/>
<path d="M1484 7680 c0 -15 4 -16 19 -8 19 10 16 20 -6 24 -7 1 -13 -7 -13
-16z"/>
<path d="M5504 7685 c-10 -8 -14 -15 -8 -15 6 0 17 7 24 15 16 19 9 19 -16 0z"/>
<path d="M1512 7649 c-7 -10 -12 -24 -12 -31 0 -9 3 -8 10 2 8 13 10 12 10 -3
0 -14 5 -16 28 -11 24 7 25 5 14 -9 -11 -13 -10 -15 10 -9 21 5 22 4 9 -12
-12 -14 -12 -17 -1 -14 7 2 18 -6 24 -18 6 -11 17 -19 24 -16 8 2 10 -2 5 -15
-6 -16 -5 -16 10 -4 15 12 17 11 17 -6 0 -18 38 -59 46 -50 3 3 30 -20 61 -49
30 -30 59 -54 64 -54 4 0 11 -5 15 -12 4 -7 3 -8 -4 -4 -7 4 -12 5 -12 3 0 -3
16 -14 35 -26 19 -11 35 -27 35 -35 0 -23 41 -46 82 -46 29 0 41 6 54 26 26
38 22 81 -9 112 -15 15 -27 21 -27 14 0 -6 5 -12 12 -12 6 0 8 -3 5 -6 -9 -9
-38 16 -32 26 3 5 -4 11 -15 15 -15 5 -19 12 -15 26 4 11 2 19 -5 19 -6 0 -8
-5 -5 -10 7 -12 -31 -8 -42 5 -5 4 -2 5 5 1 7 -4 12 -1 12 8 0 14 -11 19 -37
15 -3 0 -10 6 -15 15 -5 9 -13 14 -19 11 -5 -4 -9 1 -9 10 0 9 -12 18 -30 21
-16 4 -27 10 -24 15 3 5 2 9 -3 10 -4 0 -16 2 -25 4 -15 3 -16 0 -8 -16 8 -15
7 -17 -5 -13 -8 4 -15 10 -15 14 0 4 -8 7 -17 7 -10 0 -33 6 -50 14 -26 12
-30 18 -20 28 10 10 6 11 -18 7 -16 -4 -24 -3 -17 0 19 9 14 24 -9 24 -19 0
-19 1 -5 16 20 20 21 30 1 14 -10 -8 -19 -9 -27 -3 -26 20 -45 21 -56 2z m233
-159 c3 -5 1 -10 -4 -10 -6 0 -11 5 -11 10 0 6 2 10 4 10 3 0 8 -4 11 -10z
m120 -40 c3 -5 -1 -10 -9 -10 -8 0 -18 5 -21 10 -3 6 1 10 9 10 8 0 18 -4 21
-10z m135 -106 c0 -2 -7 -4 -15 -4 -8 0 -15 4 -15 10 0 5 7 7 15 4 8 -4 15 -8
15 -10z"/>
<path d="M3585 7624 c-113 -9 -209 -27 -306 -58 -107 -34 -302 -118 -330 -142
-8 -8 -23 -14 -32 -14 -9 0 -19 -5 -22 -11 -4 -6 -14 -8 -22 -5 -17 7 -113
-40 -207 -102 -38 -25 -114 -90 -168 -145 -55 -54 -102 -96 -105 -93 -6 6 34
45 75 73 12 8 22 21 22 27 0 14 78 90 130 127 19 14 64 43 100 63 36 21 85 55
110 75 25 20 67 52 93 70 56 38 56 54 0 20 -91 -55 -330 -227 -391 -282 -196
-175 -385 -378 -518 -557 -230 -307 -332 -585 -365 -994 -15 -193 -7 -496 16
-591 9 -38 18 -77 20 -85 10 -50 22 -90 67 -225 56 -171 179 -419 299 -602
183 -277 285 -436 293 -456 4 -12 10 -40 12 -62 4 -41 24 -113 76 -272 28 -89
45 -123 32 -65 -9 38 -51 182 -80 271 -13 41 -22 76 -20 79 9 9 66 -83 96
-155 27 -63 33 -96 40 -197 18 -247 67 -481 126 -597 19 -38 37 -69 40 -69 3
0 2 5 -1 11 -8 12 14 69 26 69 14 0 11 -17 -6 -34 -9 -9 -11 -17 -5 -21 5 -3
10 -13 10 -21 0 -8 9 -23 20 -34 18 -18 20 -18 30 -2 8 13 9 11 4 -10 -5 -21
-2 -28 9 -28 9 0 17 -13 21 -34 5 -28 15 -38 49 -55 24 -12 50 -21 58 -21 22
0 31 -11 20 -24 -14 -17 -60 -161 -87 -271 -28 -117 -30 -209 -8 -325 8 -45
12 -95 9 -111 -8 -36 21 -126 76 -231 7 -13 6 -16 -5 -12 -27 10 -86 -139 -86
-216 0 -48 37 -156 88 -255 45 -88 79 -119 190 -174 34 -17 62 -34 62 -37 0
-4 -25 -3 -56 1 -39 5 -54 3 -50 -4 17 -27 136 -35 152 -10 6 11 36 0 52 -19
7 -10 12 -11 12 -4 0 7 9 12 21 12 15 0 19 -5 15 -17 -4 -13 4 -25 27 -40 17
-12 75 -56 127 -97 52 -42 121 -96 152 -121 32 -25 67 -45 79 -45 14 0 63 42
143 120 118 118 123 121 199 145 43 14 86 25 96 25 36 0 168 39 204 60 45 27
43 39 -3 15 -41 -21 -118 -45 -147 -45 -35 0 -27 16 15 28 20 7 77 36 127 65
111 65 135 101 136 200 1 72 -13 109 -36 101 -8 -4 0 9 18 27 20 20 44 61 57
97 19 51 25 60 33 47 5 -9 6 -42 3 -73 -5 -46 -4 -53 5 -38 17 27 5 126 -26
223 l-27 83 20 32 c19 31 20 37 7 111 -7 43 -26 116 -40 162 -26 80 -26 86
-11 108 58 79 67 99 77 157 8 50 7 73 -7 119 -16 55 -54 201 -54 207 0 2 21
15 48 28 73 38 140 121 161 201 22 89 52 248 72 380 19 130 30 170 104 375 38
106 116 241 229 398 59 81 148 204 199 274 51 70 127 186 170 257 128 214 181
343 241 592 55 227 61 281 60 539 0 220 -2 242 -27 345 -38 155 -69 255 -78
255 -4 0 -5 9 -2 19 3 13 -1 21 -14 24 -15 4 -15 5 -1 6 15 1 15 7 -7 69 -30
88 -93 222 -104 222 -5 0 -11 10 -15 23 -5 19 -8 20 -17 7 -9 -13 -10 -12 -5
3 11 34 -162 293 -317 474 -238 277 -625 532 -940 618 -199 54 -457 82 -632
69z m414 -60 c123 -19 309 -82 446 -152 137 -70 435 -264 435 -284 0 -13 -39
-9 -70 7 -17 9 -41 20 -54 25 -21 8 -24 7 -19 -8 6 -14 4 -15 -9 -4 -8 7 -23
10 -32 6 -25 -10 -19 5 7 16 22 10 22 10 -3 7 -17 -1 -26 -9 -28 -25 -2 -12
-7 -20 -12 -17 -11 7 -3 33 16 56 12 13 4 20 -65 57 -94 50 -458 193 -568 223
-61 16 -115 21 -248 24 -93 2 -201 0 -240 -5 -38 -5 -99 -11 -135 -15 l-65 -5
43 16 c74 28 38 27 -52 -1 -86 -27 -232 -62 -296 -71 -67 -10 -5 15 202 81
231 74 235 75 372 85 121 9 247 4 375 -16z m-254 -120 c-8 -6 -11 -15 -7 -20
4 -4 -1 -2 -10 5 -25 19 -22 26 7 26 21 0 23 -2 10 -11z m-92 -1 c-29 -2 -77
-2 -105 0 -29 2 -6 3 52 3 58 0 81 -1 53 -3z m161 -8 c4 -10 -1 -15 -14 -15
-11 0 -20 7 -20 15 0 8 6 15 14 15 8 0 16 -7 20 -15z m83 -1 c-3 -3 -12 -4
-19 -1 -8 3 -5 6 6 6 11 1 17 -2 13 -5z m207 -15 c-3 -5 -10 -7 -15 -4 -5 4
-9 1 -9 -4 0 -6 -10 -11 -22 -11 -13 -1 -45 -9 -73 -19 -27 -11 -70 -26 -94
-35 -24 -9 -64 -19 -90 -21 -25 -2 -39 -2 -31 1 8 3 22 8 30 11 8 3 21 7 29 9
8 1 17 8 21 14 4 7 11 11 16 11 5 -1 24 2 42 5 30 6 31 8 15 19 -14 11 -15 16
-6 26 8 8 16 9 25 2 23 -17 44 -21 59 -11 11 8 11 9 -3 4 -10 -3 -20 -1 -23 4
-3 5 23 10 57 12 69 3 81 1 72 -13z m-804 -5 c-279 -92 -524 -206 -665 -311
-49 -37 -147 -124 -218 -195 -70 -70 -130 -128 -133 -128 -3 0 21 31 53 68 89
103 247 246 346 312 141 95 376 204 527 244 103 27 163 34 90 10z m334 -32
c-4 -9 -6 -21 -5 -25 1 -5 -3 -6 -8 -3 -5 4 -11 0 -14 -6 -2 -7 -7 -10 -11 -7
-4 4 4 22 16 41 22 34 37 34 22 0z m-663 8 c-44 -20 -70 -26 -57 -13 9 9 67
30 86 32 8 0 -5 -8 -29 -19z m-71 -25 c0 -5 -68 -35 -79 -35 -8 1 61 39 72 40
4 0 7 -2 7 -5z m426 -10 c-11 -8 -25 -15 -30 -15 -6 1 0 7 14 15 32 19 40 18
16 0z m-518 -27 c-3 -7 -13 -15 -24 -17 -16 -3 -17 -1 -5 13 16 19 34 21 29 4z
m842 -32 c0 -26 -35 -40 -58 -23 -9 8 -8 13 5 23 24 18 53 18 53 0z m457 8
c-3 -3 -12 -4 -19 -1 -8 3 -5 6 6 6 11 1 17 -2 13 -5z m-605 -24 l-23 -19 28
-3 c25 -3 24 -4 -9 -9 -20 -3 -34 -1 -32 3 3 4 1 8 -4 8 -32 0 -338 -66 -400
-86 -41 -13 -80 -24 -87 -24 -6 0 -53 -20 -103 -45 -51 -24 -92 -42 -92 -40 0
13 211 120 295 149 109 37 333 84 405 85 l45 0 -23 -19z m63 -8 c-3 -3 -11 0
-18 7 -9 10 -8 11 6 5 10 -3 15 -9 12 -12z m782 2 c-3 -3 -12 -4 -19 -1 -8 3
-5 6 6 6 11 1 17 -2 13 -5z m83 -14 c0 -5 -2 -10 -4 -10 -3 0 -8 5 -11 10 -3
6 -1 10 4 10 6 0 11 -4 11 -10z m-362 -35 c117 -24 326 -114 483 -206 112 -67
310 -255 433 -414 83 -106 129 -180 186 -295 101 -206 124 -294 150 -574 11
-114 24 -214 30 -221 13 -16 4 -217 -15 -345 -20 -132 -122 -424 -208 -595
-41 -82 -213 -340 -332 -498 -94 -126 -206 -342 -234 -453 -39 -157 -63 -301
-70 -419 -7 -123 -10 -126 -33 -40 -14 49 -14 48 -10 -55 2 -58 6 -107 8 -109
2 -2 10 2 19 9 13 10 15 9 15 -9 0 -51 -33 -181 -61 -238 -35 -72 -114 -150
-192 -187 -43 -21 -77 -27 -202 -36 -82 -6 -190 -18 -238 -26 -49 -9 -90 -14
-92 -12 -2 2 20 23 48 46 29 24 89 80 135 125 80 79 82 80 58 37 -14 -25 -48
-74 -76 -108 -28 -35 -49 -66 -46 -69 10 -11 55 27 107 89 94 113 156 281 146
395 -6 61 -29 132 -47 143 -18 11 -128 247 -139 298 -21 98 -14 174 43 487 13
77 28 173 32 214 4 50 9 69 16 60 11 -18 1 -137 -23 -264 -28 -149 -49 -303
-49 -365 1 -78 15 -46 34 75 9 55 29 183 45 285 16 102 33 217 36 255 8 79 -6
148 -36 180 -18 20 -18 22 6 70 13 28 55 154 95 280 116 374 150 481 212 665
33 96 76 229 97 295 27 87 41 119 52 116 43 -12 59 -11 92 2 101 43 133 236
40 245 -32 3 -100 -24 -88 -36 3 -3 20 -6 38 -7 30 0 32 -2 30 -33 -1 -37 -31
-75 -75 -98 -26 -13 -28 -13 -28 3 0 26 -48 124 -72 151 -36 38 -123 25 -147
-22 -6 -11 -20 -47 -32 -80 -19 -53 -55 -104 -65 -94 -2 3 7 38 21 78 31 93
31 133 0 196 -27 55 -56 74 -110 74 -46 0 -67 -32 -111 -168 -19 -60 -41 -118
-49 -128 -13 -17 -14 -15 -15 24 0 53 -41 144 -77 172 -82 65 -181 22 -244
-106 -17 -35 -35 -61 -40 -59 -4 3 -15 29 -25 58 -24 73 -68 158 -94 182 -33
30 -111 27 -146 -6 -36 -34 -63 -91 -70 -146 -3 -27 -7 -63 -10 -82 l-5 -33
-29 60 c-61 129 -162 132 -225 7 -34 -68 -55 -78 -91 -44 -31 29 -32 75 -2
106 l21 23 -31 0 c-71 0 -102 -114 -49 -184 34 -44 69 -60 114 -51 l31 6 16
-68 c8 -37 62 -210 120 -383 58 -175 118 -379 136 -460 18 -80 65 -244 104
-365 59 -179 72 -229 69 -270 -5 -78 25 -348 52 -466 50 -216 45 -312 -25
-489 -50 -125 -79 -240 -81 -320 -2 -60 1 -71 42 -145 25 -44 53 -93 63 -110
17 -28 16 -28 -13 5 -79 88 -146 259 -132 337 5 22 31 84 60 138 29 53 51 99
48 101 -6 6 -88 -102 -120 -158 -51 -89 -46 -180 19 -318 31 -65 53 -91 165
-201 l130 -125 -138 3 c-153 4 -363 20 -387 29 -19 7 -106 124 -137 185 -58
114 -99 259 -139 496 -61 354 -68 379 -157 577 -58 131 -239 426 -260 426 -3
0 -19 -10 -36 -22 l-32 -21 27 29 28 30 -36 49 c-96 134 -243 420 -283 550
-51 166 -91 431 -91 600 0 356 105 743 257 945 27 36 78 103 113 150 35 47
118 139 185 205 111 112 130 126 267 203 82 46 191 101 244 124 97 40 395 123
417 115 7 -2 30 3 52 11 81 30 495 42 613 17z m579 -50 c0 -8 -4 -12 -9 -9 -5
3 -6 10 -3 15 9 13 12 11 12 -6z m-87 -5 c0 -5 -8 -10 -17 -10 -15 0 -16 2 -3
10 19 12 20 12 20 0z m26 -45 c-6 -17 7 -19 34 -5 11 6 21 6 24 1 8 -12 -41
-23 -65 -16 -22 7 -25 21 -6 28 19 8 19 8 13 -8z m58 -40 c-25 -19 -40 -19
-24 0 7 8 20 15 28 15 13 0 12 -3 -4 -15z m306 -25 c0 -5 -9 -10 -19 -10 -11
0 -23 -4 -26 -10 -3 -5 -12 -10 -18 -10 -16 1 34 39 51 40 6 0 12 -4 12 -10z
m-150 -130 c118 -100 227 -222 331 -373 71 -103 137 -209 92 -147 -90 124
-280 345 -401 466 -81 81 -141 145 -135 143 7 -2 58 -42 113 -89z m140 80 c0
-5 -4 -10 -10 -10 -5 0 -10 5 -10 10 0 6 5 10 10 10 6 0 10 -4 10 -10z m267
-219 c109 -132 173 -228 237 -355 l31 -61 6 35 c5 33 6 33 12 10 3 -14 8 -38
10 -55 2 -16 8 -39 12 -49 6 -14 5 -17 -3 -12 -9 5 -9 1 -3 -16 5 -13 14 -22
21 -20 6 1 9 -2 6 -7 -8 -13 4 -42 15 -35 5 3 6 -2 3 -11 -5 -11 -2 -14 12 -9
14 4 15 3 6 -4 -14 -10 -7 -62 9 -62 5 0 6 -7 3 -15 -4 -8 -1 -15 5 -15 6 0 8
-7 5 -15 -4 -8 -1 -15 5 -15 6 0 8 -7 4 -17 -4 -10 -2 -14 4 -10 7 5 9 0 6
-13 -3 -11 0 -20 6 -20 7 0 9 -9 5 -25 -4 -16 -2 -25 6 -25 6 0 9 -4 5 -9 -3
-5 -1 -12 4 -15 5 -4 7 -18 5 -32 -4 -21 -2 -25 11 -20 13 4 14 2 5 -14 -8
-14 -8 -20 0 -20 6 0 10 -6 9 -12 -2 -7 1 -41 5 -76 7 -53 11 -62 25 -57 13 5
14 4 4 -6 -19 -19 -16 -49 5 -49 11 0 13 -3 6 -8 -8 -5 -12 -68 -12 -197 0
-412 -75 -681 -287 -1035 -104 -175 -232 -367 -290 -440 -29 -36 -83 -110
-120 -165 -71 -106 -114 -157 -75 -90 27 46 158 242 325 488 190 278 231 355
292 537 77 235 98 379 97 685 -1 253 -10 325 -69 565 -41 166 -80 273 -149
410 -101 199 -206 356 -351 525 -28 33 -55 67 -60 75 -13 23 69 -71 192 -219z
m-2747 45 c0 -3 -4 -8 -10 -11 -5 -3 -10 -1 -10 4 0 6 5 11 10 11 6 0 10 -2
10 -4z m2645 -168 c20 -27 32 -48 27 -48 -6 0 -18 12 -27 28 -10 15 -29 40
-44 56 -14 16 -18 25 -9 20 9 -5 33 -30 53 -56z m92 26 c-3 -3 -12 -4 -19 -1
-8 3 -5 6 6 6 11 1 17 -2 13 -5z m-47 -14 c8 -5 11 -10 5 -10 -5 0 -17 5 -25
10 -8 5 -10 10 -5 10 6 0 17 -5 25 -10z m-3084 -107 c-19 -39 -47 -84 -61
-102 -20 -22 -25 -38 -21 -55 3 -13 -1 -39 -9 -57 -8 -19 -14 -29 -15 -22 0 7
-7 10 -15 6 -9 -3 -13 -8 -11 -11 3 -3 1 -11 -5 -19 -6 -7 -9 -13 -6 -13 3 0
-11 -30 -30 -67 -62 -118 -71 -137 -88 -190 -20 -62 -30 -69 -20 -15 17 95
138 357 233 504 41 65 77 116 79 114 3 -2 -11 -35 -31 -73z m3109 -14 c11 -17
-1 -21 -15 -4 -8 9 -8 15 -2 15 6 0 14 -5 17 -11z m90 -116 c35 -74 44 -117
29 -144 -12 -22 -13 -22 -14 -4 0 11 -11 57 -24 103 -25 87 -21 106 9 45z m50
-153 c3 -5 1 -10 -4 -10 -6 0 -11 5 -11 10 0 6 2 10 4 10 3 0 8 -4 11 -10z
m-18 -42 c-3 -8 -6 -5 -6 6 -1 11 2 17 5 13 3 -3 4 -12 1 -19z m26 -98 l7 -45
-15 50 c-8 28 -14 57 -14 65 1 26 16 -22 22 -70z m-3416 25 c-8 -22 -19 -41
-25 -43 -8 -2 -7 6 2 25 8 15 18 37 21 47 3 10 8 17 10 14 3 -3 -1 -22 -8 -43z
m-27 -84 c0 -6 -12 -23 -26 -38 -28 -30 -28 -29 10 35 9 14 16 16 16 3z m1470
-28 c0 -34 -40 -123 -65 -143 -17 -14 -18 -12 -12 63 6 85 17 107 53 107 20 0
24 -5 24 -27z m754 -5 c11 -30 -3 -90 -28 -123 -14 -18 -15 -12 -16 68 0 79 2
88 17 85 10 -2 22 -15 27 -30z m1286 20 c0 -39 21 -183 35 -246 l17 -74 26 24
26 23 -27 -33 c-15 -19 -27 -37 -27 -40 1 -20 13 -51 19 -47 4 2 6 -32 3 -75
l-5 -80 39 15 39 16 -34 -32 c-34 -31 -35 -36 -47 -147 -16 -142 -63 -349
-114 -502 -43 -128 -116 -290 -130 -290 -14 0 -14 1 31 97 86 184 166 459 190
656 16 132 4 383 -26 527 -32 159 -39 220 -26 220 6 0 11 -6 11 -12z m-3520
-108 c-55 -56 -95 -135 -130 -255 -13 -44 -28 -84 -32 -90 -6 -6 -7 -4 -4 5 2
8 14 57 26 109 31 135 45 164 112 226 74 69 93 72 28 5z m1860 10 c0 -11 -4
-20 -10 -20 -5 0 -10 9 -10 20 0 11 5 20 10 20 6 0 10 -9 10 -20z m-666 -59
c82 -134 163 -175 373 -191 159 -12 217 2 340 80 21 13 24 13 39 -9 39 -55
154 -64 199 -15 21 23 24 23 58 9 48 -20 94 -19 137 3 40 20 87 83 96 130 3
18 11 35 17 39 6 4 8 0 4 -10 -3 -10 -2 -17 3 -17 24 0 17 -47 -26 -156 -25
-65 -57 -153 -71 -194 -13 -41 -34 -97 -45 -125 -38 -96 -95 -277 -168 -535
-21 -74 -51 -180 -68 -235 -17 -55 -38 -135 -48 -177 -10 -43 -21 -78 -25 -78
-5 0 -13 19 -19 42 -7 22 -24 53 -39 69 -24 23 -38 28 -113 34 -47 4 -105 4
-129 0 -52 -9 -98 -51 -101 -92 0 -15 -2 -34 -2 -41 -1 -12 -24 -32 -37 -32
-4 0 -9 17 -12 39 -4 34 -32 133 -142 511 -18 63 -56 194 -84 290 -80 277 -81
281 -116 370 -65 168 -99 350 -66 350 5 0 26 -26 45 -59z m396 -66 c16 -19 9
-61 -10 -56 -8 2 -39 6 -67 9 l-53 4 24 29 c14 16 30 54 37 84 l12 55 23 -55
c12 -31 27 -62 34 -70z m2020 111 c0 -2 -8 -10 -17 -17 -16 -13 -17 -12 -4 4
13 16 21 21 21 13z m-1820 -56 c0 -41 -5 -56 -25 -75 -26 -27 -45 -32 -45 -12
0 15 57 137 65 137 3 0 5 -23 5 -50z m87 24 c2 -6 -9 -21 -23 -35 -22 -19 -26
-20 -21 -6 4 10 7 27 7 37 0 19 31 22 37 4z m1740 -266 c-3 -8 -6 -5 -6 6 -1
11 2 17 5 13 3 -3 4 -12 1 -19z m-2463 -4 c3 -8 2 -12 -4 -9 -6 3 -10 10 -10
16 0 14 7 11 14 -7z m2353 -36 c-3 -7 -5 -2 -5 12 0 14 2 19 5 13 2 -7 2 -19
0 -25z m-3577 -12 c-5 -15 -10 -41 -10 -58 0 -25 3 -29 20 -25 11 3 20 1 20
-3 0 -8 -103 -130 -106 -126 -9 9 21 132 45 183 30 64 52 84 31 29z m3580 -51
c0 -19 -4 -35 -8 -35 -6 0 -7 21 -3 63 1 4 3 7 6 7 3 0 5 -16 5 -35z m-3605
-217 c-5 -29 -28 -57 -48 -58 -8 0 4 27 31 68 19 30 23 28 17 -10z m65 -23
c-7 -9 -27 -25 -44 -36 -24 -16 -22 -12 9 15 43 38 55 46 35 21z m-83 -167
c-2 -18 -4 -6 -4 27 0 33 2 48 4 33 2 -15 2 -42 0 -60z m94 31 c-5 -13 -10
-19 -10 -12 -1 15 10 45 15 40 3 -2 0 -15 -5 -28z m2280 -54 c-42 -19 -52 -19
-27 0 11 8 29 15 40 15 16 -1 12 -5 -13 -15z m-2384 -57 c-3 -7 -5 -2 -5 12 0
14 2 19 5 13 2 -7 2 -19 0 -25z m2407 -7 c-14 -13 -54 -23 -54 -14 0 10 52 32
59 26 3 -2 0 -7 -5 -12z m1396 5 c0 -3 -4 -8 -10 -11 -5 -3 -10 -1 -10 4 0 6
5 11 10 11 6 0 10 -2 10 -4z m-3750 -71 c-45 -46 -50 -50 -50 -38 0 7 81 83
89 83 3 0 -15 -20 -39 -45z m3630 -43 c0 -11 -22 -32 -32 -32 -5 0 -4 9 2 20
11 20 30 28 30 12z m-3572 -82 c-10 -31 -28 -50 -28 -30 0 11 29 60 36 60 1 0
-2 -14 -8 -30z m3657 -16 c-31 -24 -98 -57 -90 -45 6 10 93 60 105 60 3 0 -4
-7 -15 -15z m45 -28 c0 -7 -9 -16 -21 -19 -21 -6 -21 -5 -3 13 23 23 24 23 24
6z m-3720 -86 c0 -5 -5 -10 -11 -10 -5 0 -7 5 -4 10 3 6 8 10 11 10 2 0 4 -4
4 -10z m1433 -30 c-5 -19 -23 -29 -23 -12 0 7 20 32 26 32 1 0 0 -9 -3 -20z
m-1310 -45 c-19 -16 -23 -25 -13 -25 12 0 60 -76 60 -95 0 -14 -33 12 -46 36
-8 16 -20 29 -26 29 -7 0 -5 -7 4 -17 9 -10 18 -37 21 -61 4 -37 3 -41 -10
-31 -22 19 -43 65 -43 94 0 14 -7 28 -15 31 -21 9 -9 23 39 45 55 25 62 24 29
-6z m3448 -12 c-41 -56 -61 -78 -61 -69 0 10 68 96 76 96 3 0 -4 -12 -15 -27z
m-1711 -107 c0 -23 -16 -27 -17 -5 -1 10 2 19 8 19 5 0 9 -6 9 -14z m-117 -27
c-3 -12 -11 -18 -19 -15 -8 3 -14 0 -14 -6 0 -6 -3 -9 -6 -5 -3 3 -1 14 5 24
8 14 11 15 11 3 0 -12 3 -11 11 3 13 23 18 22 12 -4z m195 -8 c3 -8 -1 -12 -9
-9 -7 2 -15 10 -17 17 -3 8 1 12 9 9 7 -2 15 -10 17 -17z m1413 -40 c-40 -78
-211 -308 -211 -283 0 7 41 70 92 140 50 70 101 141 112 158 29 43 32 35 7
-15z m-3111 5 c0 -10 -64 -38 -85 -36 -13 1 -3 15 11 15 9 0 22 8 29 18 10 14
14 15 18 5 3 -8 6 -6 6 5 1 20 21 13 21 -7z m1610 -30 c0 -3 -4 -8 -10 -11 -5
-3 -10 -1 -10 4 0 6 5 11 10 11 6 0 10 -2 10 -4z m-1604 -35 c1 -15 -3 -20
-13 -17 -8 3 -19 6 -24 6 -6 0 -5 9 1 21 14 25 35 20 36 -10z m1532 -56 c-3
-26 -1 -32 12 -27 11 4 13 2 5 -9 -6 -9 -8 -63 -5 -142 3 -79 1 -132 -5 -139
-7 -8 -6 -9 4 -3 11 6 11 4 4 -10 -6 -10 -8 -25 -6 -35 2 -9 -3 -22 -11 -29
-9 -8 -16 -18 -16 -23 0 -6 7 -5 15 2 9 7 18 10 21 7 9 -8 -6 -87 -16 -87 -5
0 -4 14 2 31 13 37 2 52 -12 15 -5 -14 -8 -51 -5 -81 3 -30 0 -57 -5 -60 -6
-4 -9 50 -9 146 1 83 -2 154 -7 158 -5 3 -10 24 -11 45 -2 22 -8 43 -14 46 -7
5 -5 10 6 14 14 5 15 9 5 21 -10 12 -10 18 -1 29 10 11 8 15 -5 18 -16 3 -16
4 2 22 14 15 16 20 5 24 -11 4 -11 6 0 13 11 7 10 9 -3 9 -10 0 -18 4 -18 10
0 5 7 7 15 4 11 -5 15 2 15 27 0 38 32 84 38 54 2 -10 2 -32 0 -50z m90 50 c6
-5 6 -149 0 -192 -3 -22 -9 -47 -13 -54 -5 -7 -4 -10 3 -6 6 5 8 0 5 -13 -3
-11 -9 -17 -14 -14 -5 3 -9 0 -9 -5 0 -6 4 -11 10 -11 12 0 8 -42 -5 -53 -6
-6 -6 -10 2 -14 9 -3 10 -10 3 -22 -5 -10 -6 -21 -3 -25 3 -3 1 -6 -5 -6 -7 0
-11 22 -11 58 0 31 -4 107 -10 167 -5 61 -7 131 -4 158 5 43 8 47 27 41 12 -4
22 -8 24 -9z m86 -49 l27 -53 -11 -141 c-10 -144 -16 -171 -34 -184 -8 -6 -7
-11 2 -16 10 -7 10 -20 1 -63 -13 -63 -32 -103 -23 -49 3 19 10 50 14 67 5 18
5 35 1 38 -4 2 -8 18 -9 36 -1 41 -12 51 -12 11 0 -17 -5 -34 -11 -38 -7 -4
-9 0 -5 12 3 11 7 34 8 52 2 28 6 32 23 28 19 -5 19 -5 1 9 -17 13 -19 28 -18
157 1 188 1 188 10 188 5 0 21 -24 36 -54z m-269 -40 c-16 -82 -22 -245 -8
-255 4 -3 8 -34 8 -68 0 -93 -12 -62 -25 62 -13 124 -6 239 17 303 22 64 26
45 8 -42z m-1343 -170 c18 -28 60 -87 94 -131 69 -91 166 -233 213 -313 37
-63 72 -167 64 -188 -4 -10 -15 11 -28 55 -13 39 -44 106 -71 148 -72 116
-203 311 -234 347 -24 28 -95 130 -115 166 -20 36 49 -39 77 -84z m1358 5 c0
-6 -4 -12 -8 -15 -5 -3 -9 1 -9 9 0 8 4 15 9 15 4 0 8 -4 8 -9z m-9 -54 c-10
-9 -11 -8 -5 6 3 10 9 15 12 12 3 -3 0 -11 -7 -18z m30 -13 c-5 -16 -10 -21
-10 -12 -1 18 10 51 15 45 2 -1 -1 -16 -5 -33z m1379 5 c-24 -11 -51 -25 -60
-32 -13 -11 -13 -10 0 7 16 21 66 45 90 45 8 0 -5 -9 -30 -20z m-2620 -19 c0
-5 -4 -10 -10 -10 -5 0 -10 5 -10 10 0 6 5 10 10 10 6 0 10 -4 10 -10z m1260
-24 c0 -3 -4 -8 -10 -11 -5 -3 -10 -1 -10 4 0 6 5 11 10 11 6 0 10 -2 10 -4z
m1270 -56 c-12 -16 -26 -30 -31 -30 -5 0 3 14 18 30 14 17 28 30 30 30 3 0 -5
-13 -17 -30z m154 5 c-9 -14 -38 -38 -63 -52 -25 -15 -55 -33 -65 -42 -11 -9
-16 -10 -12 -3 6 11 146 121 154 122 1 0 -5 -11 -14 -25z m-1304 -35 c0 -5 -7
-10 -16 -10 -8 0 -12 5 -9 10 3 6 10 10 16 10 5 0 9 -4 9 -10z m60 -19 c0 -6
-4 -13 -10 -16 -5 -3 -10 1 -10 9 0 9 5 16 10 16 6 0 10 -4 10 -9z m-79 -68
c-9 -15 -10 -12 -11 18 0 20 3 39 8 43 11 12 14 -42 3 -61z m1096 61 c-3 -3
-12 -4 -19 -1 -8 3 -5 6 6 6 11 1 17 -2 13 -5z m46 -41 c-4 -9 -31 -58 -60
-107 -29 -50 -67 -127 -84 -171 -38 -96 -92 -356 -115 -550 -27 -234 -74 -346
-186 -451 -50 -48 -134 -101 -144 -91 -2 2 14 12 36 22 22 10 71 51 109 90
102 108 115 146 191 600 62 368 98 471 214 623 44 57 49 61 39 35z m-1286 -15
c-3 -8 -6 -5 -6 6 -1 11 2 17 5 13 3 -3 4 -12 1 -19z m-977 -8 c0 -5 -5 -10
-11 -10 -5 0 -7 5 -4 10 3 6 8 10 11 10 2 0 4 -4 4 -10z m977 -57 c-3 -10 -5
-4 -5 12 0 17 2 24 5 18 2 -7 2 -21 0 -30z m274 -26 c-10 -9 -11 -8 -5 6 3 10
9 15 12 12 3 -3 0 -11 -7 -18z m-285 -35 c-14 -14 -16 -14 -16 -1 0 20 23 44
29 28 2 -6 -4 -18 -13 -27z m70 -37 c1 -8 -2 -17 -7 -21 -5 -3 -9 7 -9 22 0
27 12 26 16 -1z m-55 -28 c-8 -8 -11 -5 -11 9 0 27 14 41 18 19 2 -9 -1 -22
-7 -28z m112 -6 c3 -14 0 -17 -14 -14 -15 4 -17 8 -8 19 15 18 16 18 22 -5z
m109 -36 c-2 -14 -8 -23 -12 -20 -10 6 -1 45 10 45 4 0 5 -11 2 -25z m-219 -5
c-3 -11 -9 -17 -14 -15 -10 7 -1 35 11 35 5 0 6 -9 3 -20z m103 -25 c-2 -19
-6 -35 -9 -35 -4 0 -7 2 -7 5 0 3 0 19 0 35 0 17 4 30 9 30 5 0 8 -16 7 -35z
m84 31 c0 -3 -4 -8 -10 -11 -5 -3 -10 -1 -10 4 0 6 5 11 10 11 6 0 10 -2 10
-4z m-193 -73 c-3 -10 -5 -4 -5 12 0 17 2 24 5 18 2 -7 2 -21 0 -30z m220 6
c2 -16 -3 -20 -25 -17 -27 3 -34 19 -11 27 7 2 9 -1 5 -8 -4 -6 -2 -11 3 -11
6 0 11 7 11 15 0 23 16 18 17 -6z m-113 -126 c-4 -54 -7 -105 -6 -113 1 -28
-8 -60 -19 -60 -6 0 -8 15 -5 38 3 20 8 77 11 127 4 49 9 93 11 97 13 21 15 0
8 -89z m112 71 c-3 -9 -6 -27 -6 -40 0 -13 -5 -24 -11 -24 -6 0 -9 7 -5 15 3
8 0 15 -6 15 -7 0 -6 6 3 16 10 13 10 17 -2 25 -11 7 -8 9 10 9 17 0 22 -4 17
-16z m943 -26 c-2 -2 -17 -14 -33 -28 -27 -23 -28 -23 -17 -3 10 20 25 30 45
32 5 1 7 0 5 -1z m-939 -213 c0 -151 -4 -175 -26 -175 -11 0 -14 20 -15 88 -1
48 0 92 1 97 9 37 8 70 -2 83 -10 11 -9 17 5 27 9 7 17 18 17 24 0 7 5 9 10 6
6 -4 10 -65 10 -150z m-1135 116 c3 -5 2 -12 -3 -15 -5 -3 -9 1 -9 9 0 17 3
19 12 6z m2076 -17 c-11 -15 -18 -30 -15 -35 3 -5 -2 -6 -11 -3 -14 6 -12 11
11 35 35 36 42 37 15 3z m-1121 6 c0 -5 -5 -10 -11 -10 -5 0 -7 5 -4 10 3 6 8
10 11 10 2 0 4 -4 4 -10z m-29 -43 c-10 -9 -11 -8 -5 6 3 10 9 15 12 12 3 -3
0 -11 -7 -18z m-933 -57 c-2 -40 -7 -60 -15 -60 -17 0 -17 22 0 39 10 11 9 12
-2 6 -11 -6 -13 -4 -6 11 4 10 7 29 6 42 0 12 4 22 10 22 6 0 9 -23 7 -60z
m960 -90 c-1 -58 1 -111 5 -117 9 -14 -2 -43 -15 -43 -6 0 -7 11 -4 26 5 17 3
23 -4 19 -14 -9 -13 28 3 44 10 11 10 13 0 7 -16 -9 -18 20 -3 29 7 4 8 11 2
18 -6 7 -9 32 -7 57 3 44 3 44 -9 16 -7 -16 -16 -24 -19 -19 -4 6 3 29 16 51
13 25 24 36 29 29 4 -6 6 -59 6 -117z m62 0 c0 -91 -17 -91 -22 0 -2 51 0 70
10 70 8 0 12 -21 12 -70z m-186 -24 c-15 -26 -39 -87 -54 -134 -27 -83 -50
-117 -50 -73 0 26 49 137 92 208 39 65 48 64 12 -1z m-841 31 c3 -8 2 -20 -3
-26 -5 -9 -7 -4 -7 13 0 29 2 32 10 13z m7 -76 c-5 -11 -14 -37 -19 -58 l-9
-38 -1 37 c-1 23 6 46 16 58 22 25 27 26 13 1z m1330 -108 l32 -92 -29 -64
c-30 -62 -110 -154 -156 -178 -12 -7 2 10 31 36 68 62 112 136 112 192 0 22
-9 70 -20 105 -21 67 -26 119 -11 103 5 -6 24 -51 41 -102z m-310 -25 c0 -141
-8 -156 -11 -20 -1 50 -6 89 -10 87 -4 -3 -2 8 4 25 6 16 13 30 14 30 2 0 3
-55 3 -122z m1004 53 c-5 -5 -22 -12 -39 -16 -30 -6 -30 -6 5 13 35 18 52 20
34 3z m-1055 -37 c-8 -10 -9 -18 -3 -22 14 -9 12 -52 -1 -52 -20 0 -25 13 -13
27 9 11 9 16 -1 23 -10 6 -9 13 5 35 10 15 20 22 22 16 2 -6 -2 -19 -9 -27z
m151 -4 c-6 -11 -13 -20 -16 -20 -2 0 0 9 6 20 6 11 13 20 16 20 2 0 0 -9 -6
-20z m-1140 -103 c0 -5 -4 -5 -10 -2 -5 3 -10 14 -10 23 0 15 2 15 10 2 5 -8
10 -19 10 -23z m1190 18 c0 -13 -68 -50 -77 -42 -2 3 61 51 75 56 1 1 2 -6 2
-14z m800 -5 c0 -5 -5 -10 -11 -10 -5 0 -7 5 -4 10 3 6 8 10 11 10 2 0 4 -4 4
-10z m-1001 -7 c0 -5 -4 -17 -9 -28 -8 -18 -9 -17 -9 8 -1 15 4 27 9 27 6 0
10 -3 9 -7z m-178 -45 c44 -47 106 -134 133 -185 35 -69 76 -25 76 81 0 28 4
57 9 64 4 7 6 -10 5 -40 -2 -29 -6 -101 -10 -160 -6 -112 -24 -150 -24 -53 0
30 -4 56 -10 56 -5 1 -14 2 -19 3 -14 2 -49 44 -89 106 -19 30 -55 81 -78 113
-24 31 -41 57 -39 57 3 0 24 -19 46 -42z m74 32 c3 -5 1 -10 -4 -10 -6 0 -11
5 -11 10 0 6 2 10 4 10 3 0 8 -4 11 -10z m-815 -145 c-7 -9 -15 -13 -19 -10
-3 3 1 10 9 15 21 14 24 12 10 -5z m55 -76 c-10 -15 -25 -10 -19 6 4 8 10 12
15 9 5 -3 7 -10 4 -15z m1904 -52 c-19 -47 -59 -95 -99 -118 -35 -21 -34 -21
11 27 25 27 56 76 69 109 20 47 26 55 28 37 2 -13 -2 -38 -9 -55z m-925 -14
c-6 -22 -4 -25 9 -20 14 5 15 3 4 -13 -16 -27 -23 -25 -21 8 2 41 4 52 9 52 3
0 2 -12 -1 -27z m810 1 c5 -14 4 -15 -9 -4 -17 14 -19 20 -6 20 5 0 12 -7 15
-16z m-1614 -98 c0 -2 -7 -6 -15 -10 -8 -3 -15 -1 -15 4 0 6 7 10 15 10 8 0
15 -2 15 -4z m738 -147 c61 -6 195 -11 297 -11 228 0 241 -16 25 -32 -36 -3
-103 -8 -150 -11 -47 -4 -119 -14 -160 -23 -41 -9 -78 -16 -82 -17 -3 0 -9 -3
-12 -6 -4 -4 -20 -5 -37 -3 -18 2 -28 0 -24 -6 3 -6 2 -10 -4 -10 -5 0 -12 6
-14 13 -4 8 -8 8 -14 2 -4 -5 -26 -11 -48 -13 -32 -3 -254 -45 -360 -69 -18
-4 -20 2 -23 63 -1 36 -9 79 -18 95 -8 16 -13 33 -10 37 7 11 495 4 634 -9z
m-686 -196 c9 -11 5 -21 -19 -46 -59 -63 -63 -74 -64 -187 -1 -144 -12 -166
-29 -57 -20 134 -9 223 42 327 l41 85 9 -54 c4 -30 13 -61 20 -68z m1237 93
c-2 -2 -15 -9 -29 -15 -24 -11 -24 -11 -6 3 16 13 49 24 35 12z m289 -41 c30
-62 29 -116 -4 -165 -15 -22 -28 -40 -29 -40 -1 0 3 22 9 49 8 41 6 57 -11
103 -15 40 -18 58 -10 76 14 31 20 28 45 -23z m-421 19 c-3 -3 -12 -4 -19 -1
-8 3 -5 6 6 6 11 1 17 -2 13 -5z m-58 -8 c-2 -2 -24 -6 -49 -9 -30 -4 -38 -3
-25 3 19 8 83 14 74 6z m91 -30 c0 -8 -27 -18 -72 -26 -98 -17 -102 -18 -188
-35 -41 -8 -88 -17 -105 -19 -35 -6 -164 -29 -280 -50 -44 -8 -151 -33 -239
-55 -87 -23 -162 -41 -167 -41 -5 0 -9 11 -9 25 0 24 25 36 125 58 l20 5 -20
1 c-11 0 -43 -5 -72 -13 -48 -13 -52 -12 -56 5 -11 40 66 71 252 104 19 3 38
8 42 11 4 2 35 6 69 9 45 3 59 1 54 -8 -5 -9 -3 -9 7 1 18 17 30 15 23 -3 -4
-8 -1 -15 5 -15 6 0 11 4 11 9 0 5 7 12 16 15 14 5 15 4 4 -9 -16 -20 -1 -19
28 1 20 14 22 14 22 -2 0 -16 1 -16 16 2 8 10 13 13 9 7 -4 -8 0 -13 10 -13
11 0 15 5 12 15 -5 11 -1 12 17 6 13 -6 29 -5 40 1 14 8 17 7 12 -1 -10 -15
71 -9 103 8 13 7 21 9 17 3 -3 -5 0 -12 7 -14 17 -7 163 10 222 25 54 14 65
13 65 -7z m135 14 c-11 -5 -27 -9 -35 -9 -9 0 -8 4 5 9 11 5 27 9 35 9 9 0 8
-4 -5 -9z m-328 -6 c-3 -3 -12 -4 -19 -1 -8 3 -5 6 6 6 11 1 17 -2 13 -5z
m246 -11 c-7 -2 -19 -2 -25 0 -7 3 -2 5 12 5 14 0 19 -2 13 -5z m185 -115 c-2
-24 -9 -34 -23 -36 -11 -2 -27 -6 -35 -9 -24 -11 -80 -9 -77 2 3 9 112 71 130
74 5 0 7 -14 5 -31z m-243 2 c3 -5 -1 -10 -10 -10 -9 0 -13 5 -10 10 3 6 8 10
10 10 2 0 7 -4 10 -10z m-109 -52 c-34 -10 -56 -9 -56 3 0 6 6 9 14 6 8 -3 20
0 26 8 9 11 15 12 25 2 11 -10 9 -13 -9 -19z m-505 -5 c-12 -20 -14 -14 -5 12
4 9 9 14 11 11 3 -2 0 -13 -6 -23z m169 23 c0 -2 -8 -10 -17 -17 -16 -13 -17
-12 -4 4 13 16 21 21 21 13z m264 -19 c-4 -11 -189 -66 -231 -69 -7 -1 -13 -8
-13 -17 0 -13 -2 -13 -9 -2 -5 8 -16 11 -29 7 -11 -4 -30 -9 -43 -11 -12 -2
-47 -12 -78 -21 -70 -22 -68 -21 -86 -23 -9 0 -20 -11 -25 -23 -5 -14 -9 -17
-10 -8 0 12 -3 11 -11 -3 -10 -17 -4 -41 9 -33 4 2 32 7 62 11 30 3 62 8 70
10 8 3 47 7 85 9 163 11 232 18 260 25 17 4 42 7 58 6 15 -1 27 1 27 4 0 3 26
6 58 6 31 1 81 4 110 8 91 11 56 -10 -45 -28 -54 -9 -143 -25 -198 -35 -55
-11 -122 -22 -150 -25 -27 -3 -61 -8 -75 -10 -14 -2 -41 -6 -60 -9 -224 -34
-406 -70 -455 -91 -16 -7 -44 -16 -62 -20 -29 -6 -33 -4 -39 20 -4 18 -2 30 7
36 11 7 11 9 1 9 -10 0 -12 12 -7 48 7 48 40 92 71 92 8 0 22 4 32 9 32 17
167 50 270 66 56 8 128 22 160 30 31 8 71 14 87 13 17 0 40 2 53 6 16 5 24 3
28 -8 3 -9 10 -13 15 -10 5 3 7 10 4 15 -3 5 8 7 24 5 17 -2 31 0 31 4 0 4 14
7 31 8 17 0 34 3 37 6 11 12 41 6 36 -7z m166 -27 c0 -5 -5 -10 -11 -10 -5 0
-7 5 -4 10 3 6 8 10 11 10 2 0 4 -4 4 -10z m-925 -67 c-11 -3 -40 -17 -65 -31
-31 -18 -41 -21 -31 -9 7 9 20 17 27 17 8 0 14 4 14 9 0 11 24 19 55 19 l20 0
-20 -5z m1056 -46 c-10 -9 -11 -8 -5 6 3 10 9 15 12 12 3 -3 0 -11 -7 -18z
m-1295 -77 c0 -45 8 -74 32 -122 17 -34 29 -64 28 -66 -6 -5 -73 92 -81 117
-8 26 3 131 13 131 4 0 7 -27 8 -60z m1284 50 c0 -5 -8 -10 -17 -10 -15 0 -16
2 -3 10 19 12 20 12 20 0z m-280 -44 c0 -2 -7 -6 -15 -10 -8 -3 -15 -1 -15 4
0 6 7 10 15 10 8 0 15 -2 15 -4z m140 -6 c0 -5 -4 -10 -10 -10 -5 0 -10 5 -10
10 0 6 5 10 10 10 6 0 10 -4 10 -10z m-200 -4 c0 -3 -4 -8 -10 -11 -5 -3 -10
-1 -10 4 0 6 5 11 10 11 6 0 10 -2 10 -4z m415 -16 c-16 -10 -74 -33 -130 -51
-55 -17 -125 -41 -155 -51 -108 -39 -179 -53 -362 -72 -32 -4 -68 -10 -82 -15
-13 -6 -26 -8 -28 -6 -2 2 -27 -2 -56 -9 -29 -8 -52 -12 -52 -9 0 3 -7 0 -15
-7 -12 -10 -15 -10 -15 1 0 11 -2 11 -10 -1 -9 -13 -11 -13 -20 0 -9 13 -10
13 -10 0 0 -9 -9 -16 -19 -17 -16 -1 -19 4 -16 28 2 18 -1 29 -8 29 -7 0 -6 4
3 10 8 5 11 10 5 10 -5 0 -17 -5 -25 -10 -10 -6 -11 -10 -2 -10 7 0 12 -14 12
-35 0 -26 -4 -35 -16 -35 -10 0 -58 -13 -108 -29 -133 -43 -131 -42 -127 -2 1
19 10 41 20 50 9 9 12 13 7 9 -17 -13 -26 -9 -26 11 0 14 13 23 48 34 51 17
108 29 118 27 4 -1 10 4 15 11 6 10 11 10 22 1 7 -7 16 -10 19 -7 3 3 43 10
89 16 46 5 112 16 147 23 40 8 62 9 62 2 0 -5 7 -1 16 10 8 10 12 13 8 5 -6
-11 -3 -13 12 -7 38 16 54 18 54 8 0 -6 -5 -14 -10 -17 -6 -4 -7 -12 -4 -18 5
-9 4 -9 -6 0 -9 8 -20 8 -41 1 -16 -5 -36 -7 -45 -4 -12 5 -15 2 -10 -11 6
-17 5 -17 -7 -1 -9 11 -18 14 -28 7 -21 -13 -41 -11 -33 4 6 9 4 9 -7 1 -8 -7
-33 -15 -57 -19 -31 -5 -42 -11 -38 -21 3 -7 -3 -18 -12 -23 -16 -10 -16 -10
1 -11 11 0 21 9 24 21 4 14 12 19 24 16 10 -3 21 0 24 7 3 6 3 1 1 -12 -4 -19
-1 -22 12 -17 16 6 38 11 84 19 10 1 21 5 24 9 4 4 18 7 30 7 13 0 25 4 28 9
3 5 14 7 24 4 11 -3 31 7 50 25 18 17 33 24 35 18 3 -7 12 -4 26 8 13 12 21
15 21 6 0 -8 6 -10 18 -5 9 4 26 8 37 10 11 1 20 4 20 5 0 2 66 8 117 10 10 1
20 5 23 11 4 5 11 9 18 9 6 0 2 -7 -9 -15 -23 -18 -16 -18 42 -4 24 6 44 17
44 23 0 7 18 12 50 11 28 0 50 3 50 8 0 4 10 7 23 8 12 0 38 6 57 13 51 20 59
18 25 -4z m-475 0 c0 -5 -5 -10 -11 -10 -5 0 -7 5 -4 10 3 6 8 10 11 10 2 0 4
-4 4 -10z m-44 -15 c-11 -8 -22 -12 -25 -9 -6 6 19 24 34 24 6 -1 1 -7 -9 -15z
m594 -55 c-10 -18 -70 -57 -70 -46 0 3 -16 -2 -36 -10 -26 -11 -40 -12 -47 -5
-7 7 8 18 49 36 32 14 68 30 79 35 31 14 37 12 25 -10z m-201 -14 c-2 -2 -22
-6 -44 -9 -28 -5 -34 -4 -20 3 19 8 73 14 64 6z m-844 -26 c-3 -5 -12 -10 -18
-10 -7 0 -6 4 3 10 19 12 23 12 15 0z m755 5 c0 -6 -132 -46 -137 -41 -2 2 22
12 54 23 61 21 83 26 83 18z m115 -35 c-3 -5 -11 -10 -16 -10 -6 0 -7 5 -4 10
3 6 11 10 16 10 6 0 7 -4 4 -10z m-5 -74 c0 -9 -103 -34 -116 -29 -9 3 -14 -2
-14 -13 0 -15 -2 -16 -9 -5 -6 9 -20 12 -40 9 -17 -2 -31 -1 -31 4 0 4 12 8
28 9 15 0 36 2 47 4 11 2 40 7 65 10 24 3 46 8 49 11 6 5 21 5 21 0z m-227
-42 c-5 -15 -1 -16 31 -10 57 11 35 -10 -26 -25 -29 -8 -57 -14 -63 -14 -5 -1
-21 -7 -34 -14 -19 -11 -25 -11 -32 0 -7 11 -9 11 -9 1 0 -7 -4 -11 -9 -8 -5
4 -11 1 -13 -5 -2 -6 -16 -12 -31 -12 -15 -1 -27 -5 -27 -9 0 -4 -6 -5 -13 -2
-8 3 -19 -2 -26 -10 -6 -7 -20 -12 -30 -9 -10 3 -22 0 -25 -6 -5 -7 -1 -8 9
-5 8 4 22 1 30 -6 13 -11 18 -10 30 6 13 17 14 17 9 1 -4 -12 -2 -16 7 -13 8
3 39 7 69 10 96 8 193 27 265 51 83 28 99 26 23 -4 -47 -17 -49 -20 -23 -21
23 0 27 -3 15 -10 -13 -8 -12 -10 3 -10 9 0 17 7 17 15 0 8 5 15 11 15 5 0 8
-4 5 -9 -3 -5 13 -4 37 1 23 6 49 10 57 11 8 0 21 4 28 10 8 6 12 6 12 -2 0
-7 10 -9 28 -6 23 4 22 3 -8 -11 -42 -19 -155 -42 -198 -39 -18 1 -32 -2 -32
-7 0 -5 -13 -7 -29 -3 -17 4 -32 2 -36 -5 -4 -6 -15 -8 -26 -5 -10 4 -19 3
-19 -2 0 -4 -10 -8 -22 -9 -13 -1 -48 -4 -78 -7 -90 -9 -180 -17 -265 -22
-120 -7 -481 -65 -507 -81 -5 -3 -8 26 -8 63 0 64 2 70 28 85 33 19 158 54
232 63 30 4 62 8 70 10 8 1 37 6 63 9 27 4 58 9 69 11 12 3 54 7 95 11 59 5
73 4 73 -7 0 -10 3 -11 8 -2 4 6 23 14 42 17 19 4 47 9 63 12 15 3 55 9 90 13
34 5 65 9 69 10 4 0 5 -6 1 -15z m537 -73 c7 -19 9 -46 4 -77 l-7 -49 -13 55
c-16 65 -17 100 -5 100 5 0 14 -13 21 -29z m-1574 -110 c-30 -67 -32 -103 -11
-155 16 -38 11 -156 -6 -139 -17 17 -49 127 -49 168 0 25 16 84 37 140 34 91
38 96 46 71 7 -21 3 -40 -17 -85z m857 62 c-7 -2 -19 -2 -25 0 -7 3 -2 5 12 5
14 0 19 -2 13 -5z m501 -97 c21 2 44 8 52 15 10 8 14 8 14 1 0 -11 -57 -29
-97 -30 -26 -1 -38 12 -27 30 5 8 9 7 13 -4 4 -12 16 -15 45 -12z m-104 -26
c-8 -5 -19 -10 -25 -10 -5 0 -3 5 5 10 8 5 20 10 25 10 6 0 3 -5 -5 -10z m177
-36 c-3 -3 -12 -4 -19 -1 -8 3 -5 6 6 6 11 1 17 -2 13 -5z m-777 -28 c0 -3 -4
-8 -10 -11 -5 -3 -10 -1 -10 4 0 6 5 11 10 11 6 0 10 -2 10 -4z m-160 -22
c-136 -24 -220 -45 -220 -54 0 -5 -7 -7 -16 -3 -17 6 -94 -25 -94 -39 0 -5 9
-4 20 2 31 17 24 -6 -9 -30 l-30 -21 -10 38 c-6 21 -7 41 -3 45 22 21 305 75
397 76 29 0 19 -4 -35 -14z m565 -6 c-27 -5 -66 -13 -85 -18 -20 -6 -38 -6
-44 0 -5 5 5 11 25 14 92 15 184 19 104 4z m-215 -17 c0 -5 -21 -12 -46 -16
-26 -3 -53 -9 -60 -12 -8 -3 -14 1 -14 10 0 12 14 17 58 20 31 2 58 4 60 5 1
1 2 -2 2 -7z m65 0 c-3 -6 -15 -8 -27 -6 -34 7 -34 15 1 15 18 0 30 -4 26 -9z
m-230 -37 c-38 -17 -68 -18 -37 -1 12 7 32 13 45 14 18 1 17 -1 -8 -13z m-394
-33 c-12 -12 -21 -18 -21 -15 0 4 -7 1 -15 -6 -8 -7 -15 -10 -15 -7 0 3 -14
-8 -31 -24 -17 -16 -39 -29 -48 -29 -16 1 -14 3 62 63 16 12 32 21 38 20 5 -2
9 2 9 7 0 6 7 10 15 10 8 0 15 6 16 13 0 9 2 9 5 0 3 -6 -4 -21 -15 -32z m105
13 c-4 -11 -1 -14 12 -12 9 2 16 8 15 14 -1 5 43 10 98 12 61 1 99 -2 99 -8 0
-5 -9 -10 -20 -10 -30 0 -33 -1 -55 -16 -26 -18 -35 -18 -35 3 0 14 -3 13 -20
-5 -12 -12 -29 -22 -38 -22 -10 0 -73 -18 -140 -40 -68 -22 -127 -38 -131 -36
-4 3 -7 -4 -7 -16 1 -12 -5 -23 -13 -26 -9 -3 -11 1 -6 17 4 14 2 21 -7 21 -7
1 11 12 40 26 28 14 52 30 52 35 0 5 3 8 8 8 20 -3 42 2 54 14 7 6 19 12 26
13 6 1 21 2 31 3 11 0 23 10 26 21 3 11 9 20 12 20 3 0 2 -7 -1 -16z m1027
-13 c-18 -16 -29 -31 -26 -34 6 -7 -80 -47 -101 -47 -24 0 -46 11 -40 21 3 5
-3 6 -12 2 -15 -6 -15 -7 2 -21 16 -12 16 -14 2 -9 -10 3 -20 2 -23 -3 -4 -6
-11 -10 -17 -10 -7 0 -7 5 1 14 9 10 8 15 -4 19 -8 4 -14 3 -14 -1 4 -24 -3
-34 -18 -28 -9 4 -20 1 -25 -6 -6 -10 -8 -8 -8 5 0 13 -6 16 -22 12 -13 -2
-59 -9 -104 -15 -45 -6 -95 -15 -113 -20 -18 -5 -39 -6 -47 -3 -8 3 -14 1 -14
-4 0 -5 -19 -9 -42 -9 -24 0 -88 -7 -143 -17 -154 -25 -356 -47 -421 -46 l-59
1 62 12 c63 11 103 30 45 21 -85 -14 -97 -14 -82 -6 26 14 120 23 120 11 0 -6
5 -8 10 -5 6 4 8 11 5 16 -4 5 1 9 9 9 9 0 16 -5 16 -11 0 -5 5 -7 10 -4 6 4
8 11 5 16 -4 5 -2 9 4 9 5 0 12 -6 14 -12 3 -8 6 -6 6 5 1 17 21 25 21 8 0 -6
10 -6 28 -1 41 14 368 69 442 74 36 2 119 13 185 24 72 12 128 16 141 12 13
-5 26 -4 32 2 5 5 36 10 69 10 36 0 71 7 93 19 48 25 49 24 13 -10z m-1063 9
c-8 -5 -19 -10 -25 -10 -5 0 -3 5 5 10 8 5 20 10 25 10 6 0 3 -5 -5 -10z m541
1 c-8 -5 -20 -7 -28 -4 -21 8 -15 13 15 13 20 0 23 -3 13 -9z m-76 -11 c-7
-12 -75 -31 -87 -24 -16 10 -7 23 20 27 52 8 73 7 67 -3z m-798 -52 c-3 -7 -5
-2 -5 12 0 14 2 19 5 13 2 -7 2 -19 0 -25z m630 16 c-3 -3 -12 -4 -19 -1 -8 3
-5 6 6 6 11 1 17 -2 13 -5z m-420 -80 c-3 -3 -12 -4 -19 -1 -8 3 -5 6 6 6 11
1 17 -2 13 -5z m863 -14 c0 -5 -2 -10 -4 -10 -3 0 -8 5 -11 10 -3 6 -1 10 4
10 6 0 11 -4 11 -10z m-70 -14 c0 -2 -7 -7 -16 -10 -8 -3 -12 -2 -9 4 6 10 25
14 25 6z m440 -30 c0 -2 -7 -7 -16 -10 -8 -3 -12 -2 -9 4 6 10 25 14 25 6z
m-1023 -52 c-3 -3 -12 -4 -19 -1 -8 3 -5 6 6 6 11 1 17 -2 13 -5z m306 -61
c-7 -2 -19 -2 -25 0 -7 3 -2 5 12 5 14 0 19 -2 13 -5z m197 -53 c-69 -13 -446
-22 -390 -9 25 5 75 8 111 6 36 -2 75 0 85 3 10 4 69 7 129 7 87 1 101 -1 65
-7z m187 -16 c-3 -3 -12 -4 -19 -1 -8 3 -5 6 6 6 11 1 17 -2 13 -5z m-257 -80
c-25 -8 -85 -21 -134 -28 -51 -8 -92 -19 -97 -27 -6 -10 -9 -4 -9 18 0 30 2
32 28 28 15 -3 70 1 122 9 123 17 145 17 90 0z m-55 -104 c3 -6 -1 -7 -9 -4
-18 7 -21 14 -7 14 6 0 13 -4 16 -10z"/>
<path d="M4026 7411 c-3 -4 6 -6 19 -3 14 2 25 6 25 8 0 8 -39 4 -44 -5z"/>
<path d="M3615 7290 c-3 -5 -2 -10 4 -10 5 0 13 5 16 10 3 6 2 10 -4 10 -5 0
-13 -4 -16 -10z"/>
<path d="M4538 6993 c7 -3 16 -2 19 1 4 3 -2 6 -13 5 -11 0 -14 -3 -6 -6z"/>
<path d="M3208 6893 c7 -3 16 -2 19 1 4 3 -2 6 -13 5 -11 0 -14 -3 -6 -6z"/>
<path d="M2251 6462 c-248 -327 -354 -833 -271 -1292 58 -316 128 -503 269
-714 38 -55 125 -186 194 -289 190 -284 276 -459 302 -614 4 -24 10 -43 14
-43 5 0 6 -11 3 -25 -3 -19 0 -25 13 -25 14 0 15 -3 5 -15 -10 -11 -9 -36 4
-117 9 -57 21 -139 27 -183 16 -124 36 -191 90 -307 27 -59 49 -111 49 -117 0
-5 4 -12 9 -15 5 -4 3 22 -5 56 -13 55 -13 64 0 74 13 9 12 16 -11 49 -55 81
-87 215 -98 415 -18 338 -82 500 -359 920 -217 329 -216 326 -290 480 -78 164
-98 222 -142 414 -42 189 -58 358 -51 545 11 288 84 513 251 775 42 65 75 120
74 122 -2 1 -36 -41 -77 -94z"/>
<path d="M3012 5350 c0 -14 2 -19 5 -12 2 6 2 18 0 25 -3 6 -5 1 -5 -13z"/>
<path d="M1962 6389 c-7 -12 -11 -24 -7 -27 7 -8 25 17 25 36 0 17 -3 15 -18
-9z"/>
<path d="M3175 2340 c-11 -4 -33 -23 -50 -41 -23 -26 -24 -29 -4 -12 14 13 43
32 65 43 38 19 29 27 -11 10z"/>
<path d="M3315 2333 c-43 -10 -115 -35 -119 -42 -3 -4 23 1 57 11 92 29 126
46 62 31z"/>
<path d="M3110 2230 c-9 -6 -10 -10 -3 -10 6 0 15 5 18 10 8 12 4 12 -15 0z"/>
<path d="M3694 2004 c-18 -14 -18 -15 4 -4 12 6 22 13 22 15 0 8 -5 6 -26 -11z"/>
<path d="M3335 1939 c-4 -6 -5 -12 -2 -15 2 -3 7 2 10 11 7 17 1 20 -8 4z"/>
<path d="M3300 1925 c7 -9 15 -13 17 -11 7 7 -7 26 -19 26 -6 0 -6 -6 2 -15z"/>
<path d="M3260 1921 c0 -6 5 -13 10 -16 6 -3 10 1 10 9 0 9 -4 16 -10 16 -5 0
-10 -4 -10 -9z"/>
<path d="M3200 1911 c0 -5 5 -13 10 -16 6 -3 10 -2 10 4 0 5 -4 13 -10 16 -5
3 -10 2 -10 -4z"/>
<path d="M3121 1884 c0 -11 3 -14 6 -6 3 7 2 16 -1 19 -3 4 -6 -2 -5 -13z"/>
<path d="M3158 1883 c7 -3 16 -2 19 1 4 3 -2 6 -13 5 -11 0 -14 -3 -6 -6z"/>
<path d="M3245 1870 c-3 -5 -1 -10 4 -10 6 0 11 5 11 10 0 6 -2 10 -4 10 -3 0
-8 -4 -11 -10z"/>
<path d="M3337 1851 c-3 -13 -1 -18 9 -14 7 2 10 11 7 19 -7 19 -10 18 -16 -5z"/>
<path d="M3275 1841 c-31 -15 -35 -20 -18 -20 12 -1 25 4 28 10 4 6 13 8 20 5
7 -2 16 2 19 10 7 18 -1 17 -49 -5z"/>
<path d="M3138 1824 c-20 -9 -39 -21 -41 -29 -3 -7 13 -3 39 12 24 14 44 27
44 29 0 5 1 6 -42 -12z"/>
<path d="M3065 1790 c-16 -17 -16 -20 -3 -15 9 4 19 13 22 21 7 19 2 18 -19
-6z"/>
<path d="M3913 1737 c-12 -5 -24 -16 -28 -25 -4 -12 -3 -13 9 -3 8 7 21 9 27
5 7 -4 9 -3 5 4 -3 6 2 12 11 14 10 2 14 6 8 9 -5 4 -20 2 -32 -4z"/>
<path d="M3761 1713 c-7 -3 -22 -14 -33 -25 -11 -11 -14 -18 -7 -14 8 3 22 9
31 12 9 3 19 12 22 20 3 8 4 14 3 13 -1 0 -8 -3 -16 -6z"/>
<path d="M3829 1693 c-13 -15 -12 -15 9 -4 23 12 28 21 13 21 -5 0 -15 -7 -22
-17z"/>
<path d="M3672 1685 c-16 -19 -3 -19 22 0 14 11 16 15 5 15 -8 -1 -20 -7 -27
-15z"/>
<path d="M3190 1640 c-8 -5 -10 -10 -5 -10 6 0 17 5 25 10 8 5 11 10 5 10 -5
0 -17 -5 -25 -10z"/>
<path d="M3318 1643 c7 -3 16 -2 19 1 4 3 -2 6 -13 5 -11 0 -14 -3 -6 -6z"/>
<path d="M3126 1621 c-3 -4 6 -6 19 -3 14 2 25 6 25 8 0 8 -39 4 -44 -5z"/>
<path d="M3185 1613 c-72 -21 -78 -34 -6 -14 33 9 63 20 67 24 10 10 -3 8 -61
-10z"/>
<path d="M3080 1600 c0 -5 7 -7 15 -4 8 4 15 8 15 10 0 2 -7 4 -15 4 -8 0 -15
-4 -15 -10z"/>
<path d="M3845 1532 c-11 -4 -21 -16 -23 -27 -2 -19 -2 -19 12 -2 8 10 18 18
22 17 5 -1 10 3 12 9 2 6 2 11 0 10 -1 -1 -12 -4 -23 -7z"/>
<path d="M3880 1536 c0 -2 7 -6 15 -10 8 -3 15 -1 15 4 0 6 -7 10 -15 10 -8 0
-15 -2 -15 -4z"/>
<path d="M4208 1084 c9 -7 19 -9 22 -6 3 4 9 10 13 13 4 3 -6 6 -23 6 -26 0
-27 -2 -12 -13z"/>
<path d="M4175 1070 c-19 -8 -19 -9 3 -9 12 -1 22 4 22 9 0 6 -1 10 -2 9 -2 0
-12 -4 -23 -9z"/>
<path d="M5185 7621 c-3 -5 -1 -12 5 -16 5 -3 10 1 10 9 0 18 -6 21 -15 7z"/>
<path d="M1673 7605 c-9 -10 -8 -14 6 -18 11 -2 25 0 32 5 11 8 10 9 -3 4 -9
-3 -18 1 -20 9 -2 11 -5 11 -15 0z"/>
<path d="M1705 7570 c-3 -5 -2 -10 4 -10 5 0 13 5 16 10 3 6 2 10 -4 10 -5 0
-13 -4 -16 -10z"/>
<path d="M6430 6843 c0 -5 -26 -9 -58 -9 -180 -5 -399 -27 -415 -43 -5 -5 22
-7 60 -4 82 6 77 -11 -7 -22 -132 -16 -140 -16 -140 -6 0 9 37 16 63 12 4 0 7
4 7 10 0 15 -62 3 -75 -14 -5 -7 -18 -16 -27 -20 -24 -9 -23 -38 2 -65 18 -19
31 -22 96 -22 71 0 75 1 69 20 -3 11 -2 20 4 20 5 0 13 -9 16 -20 7 -22 22
-25 44 -11 12 8 13 12 1 25 -7 9 -10 20 -6 23 9 10 26 -17 26 -41 0 -17 5 -18
63 -11 34 5 79 9 100 9 20 1 37 4 37 7 0 4 14 9 30 11 17 3 30 1 30 -4 0 -13
38 -9 43 5 4 9 8 8 16 -3 7 -10 11 -11 11 -2 0 9 11 10 40 6 27 -5 40 -3 40 5
0 6 11 17 25 23 30 14 33 28 5 28 -11 0 -20 -4 -20 -10 0 -5 -10 -10 -22 -10
-31 0 -11 16 35 28 30 9 37 8 37 -4 0 -11 11 -14 45 -12 25 2 45 7 45 12 0 4
9 6 20 3 11 -3 20 -1 20 5 0 5 -10 9 -22 8 -41 -4 -43 0 -11 16 43 21 34 48
-13 41 -19 -3 -34 -2 -34 4 0 10 -22 8 -30 -3 -4 -4 -20 -10 -37 -14 -26 -5
-32 -2 -38 15 -4 12 -15 21 -26 21 -11 0 -17 -5 -14 -10 4 -6 12 -8 18 -4 7 3
3 -2 -7 -10 -24 -19 -57 -23 -38 -4 15 15 16 28 2 28 -5 0 -10 -3 -10 -7z
m-15 -33 c3 -5 -3 -10 -13 -10 -11 0 -34 -3 -51 -6 -21 -5 -31 -3 -31 6 0 7 8
10 19 7 10 -2 25 -1 32 4 19 12 36 11 44 -1z m255 6 c0 -3 -4 -8 -10 -11 -5
-3 -10 -1 -10 4 0 6 5 11 10 11 6 0 10 -2 10 -4z m-414 -14 c-6 -11 -66 -14
-66 -4 0 4 16 8 36 10 19 1 33 -2 30 -6z m-81 -12 c-3 -5 -21 -10 -38 -10 -24
0 -28 3 -17 10 20 13 63 13 55 0z"/>
<path d="M1184 6368 c-43 -13 -64 -25 -67 -39 -3 -10 -10 -19 -17 -19 -7 0 -9
8 -5 20 7 22 3 24 -23 11 -9 -5 -39 -19 -66 -31 -26 -12 -46 -24 -43 -26 3 -3
27 4 53 15 49 22 58 23 46 5 -6 -9 -89 -44 -104 -44 -4 0 -8 8 -10 17 -3 14
-5 15 -18 2 -8 -8 -23 -15 -32 -17 -32 -5 -110 -55 -118 -76 -5 -11 -9 -16 -9
-9 -2 23 -222 -81 -319 -151 -60 -42 -40 -43 49 -2 41 19 76 33 77 31 10 -10
-12 -24 -52 -34 -54 -13 -69 -31 -27 -31 56 0 136 22 232 66 53 23 122 50 155
59 128 36 184 57 184 70 0 8 -10 16 -22 18 -17 3 -14 5 10 6 18 0 32 6 32 14
0 8 4 7 10 -3 9 -13 12 -12 21 4 8 12 14 15 18 7 8 -13 96 16 161 53 19 10 46
25 60 33 25 13 25 13 3 13 -13 0 -23 -3 -23 -7 0 -5 -21 -9 -48 -10 l-47 -1
60 23 c40 15 61 29 63 41 2 11 0 15 -5 9 -4 -6 -24 -12 -43 -13 -19 -1 -44 -5
-54 -8 -15 -5 -18 -3 -13 10 8 19 9 19 -69 -6z m133 -14 c-3 -3 -12 -4 -19 -1
-8 3 -5 6 6 6 11 1 17 -2 13 -5z m-89 -64 c-15 -23 -28 -26 -28 -7 0 17 10 27
27 27 11 0 11 -4 1 -20z m-350 -86 c-9 -9 -24 -14 -34 -12 -16 3 -14 7 11 20
35 19 46 15 23 -8z"/>
<path d="M5967 5873 c-14 -13 -6 -69 13 -93 16 -20 22 -22 29 -11 6 9 11 10
15 2 4 -6 2 -11 -5 -11 -25 0 14 -30 111 -85 54 -30 112 -61 128 -68 27 -11
32 -16 32 -34 0 -5 4 -2 9 6 7 11 15 11 39 3 22 -7 33 -7 43 1 10 10 10 9 0
-5 -7 -10 -21 -18 -30 -18 -9 -1 2 -10 24 -21 22 -11 45 -17 52 -15 7 3 12 0
10 -6 -4 -20 19 -18 42 3 28 26 40 18 13 -9 -17 -17 -18 -21 -6 -26 9 -3 12
-1 9 4 -11 17 7 11 21 -7 12 -16 15 -16 24 -3 8 13 10 13 10 -1 0 -11 8 -16
23 -15 12 1 27 0 32 -3 20 -11 40 -10 47 2 5 8 8 7 8 -4 0 -13 16 -20 63 -28
35 -6 72 -11 82 -11 18 0 18 1 -1 14 -10 8 -20 11 -22 7 -5 -14 -51 1 -55 18
-4 13 -5 13 -6 -2 0 -10 -5 -16 -11 -12 -5 3 -7 12 -3 20 3 8 1 15 -5 15 -5 0
-12 9 -15 20 -3 12 -14 20 -26 20 -11 0 -35 16 -54 35 -25 26 -39 33 -59 30
-15 -3 -35 2 -49 14 -13 10 -35 22 -49 26 -20 6 -160 70 -179 82 -2 2 -2 5 1
8 8 9 174 -61 196 -82 8 -7 17 -11 22 -8 5 3 10 -1 13 -7 2 -7 7 -10 11 -7 9
9 -23 41 -34 34 -5 -3 -10 -1 -12 3 -6 15 -180 102 -191 95 -5 -3 -7 -2 -4 3
6 11 -91 49 -101 40 -3 -3 2 -6 10 -6 9 0 22 -8 29 -17 12 -16 12 -17 -2 -5
-20 15 -52 5 -45 -14 3 -8 1 -14 -4 -14 -6 0 -10 6 -10 13 0 22 -60 87 -98
106 -49 25 -77 33 -85 24z m270 -189 c-3 -4 1 -13 9 -21 20 -20 11 -28 -14
-12 -20 13 -19 39 1 39 6 0 8 -3 4 -6z"/>
<path d="M6715 5488 c11 -6 23 -16 27 -22 5 -7 8 -8 8 0 0 15 -22 34 -39 34
-12 -1 -11 -4 4 -12z"/>
<path d="M1161 5313 c-14 -9 -21 -11 -16 -4 6 10 2 11 -16 5 -13 -4 -34 -8
-46 -9 -12 0 -21 -2 -21 -5 1 -20 -4 -21 -17 -4 -14 19 -14 19 -15 -2 0 -12
-8 -28 -17 -35 -12 -10 -15 -10 -9 -1 4 7 0 20 -10 30 -17 16 -17 15 -11 -15
6 -29 3 -33 -41 -59 -26 -15 -65 -41 -87 -59 -51 -40 -85 -59 -85 -46 0 6 -7
8 -15 5 -8 -4 -15 -16 -15 -28 0 -17 -2 -18 -10 -6 -8 13 -10 12 -10 -2 0 -16
-11 -23 -33 -19 -5 1 -6 -3 -2 -8 6 -10 -23 -30 -40 -28 -5 1 -11 -8 -13 -20
-2 -12 -10 -27 -18 -34 -12 -10 -13 -9 -7 7 6 18 5 18 -14 4 -50 -36 -163
-132 -223 -190 -52 -49 -56 -55 -20 -28 24 18 72 59 106 91 34 31 65 57 70 57
5 -1 -32 -40 -81 -88 -50 -48 -86 -84 -81 -79 6 4 25 7 44 7 31 0 34 2 29 23
-5 20 -5 20 7 5 11 -16 15 -16 42 -1 16 9 41 22 55 29 15 8 46 31 70 52 67 57
142 117 158 127 49 29 -79 -85 -205 -183 l-29 -22 42 20 c60 28 209 134 263
185 48 46 104 85 180 125 45 24 61 37 166 138 45 42 42 54 -8 28 -42 -22 -42
-2 0 28 20 14 30 26 22 26 -9 0 -26 -8 -39 -17z m-136 -173 c-3 -5 -11 -10
-16 -10 -6 0 -7 5 -4 10 3 6 11 10 16 10 6 0 7 -4 4 -10z m-435 -194 c0 -3 -4
-8 -10 -11 -5 -3 -10 -1 -10 4 0 6 5 11 10 11 6 0 10 -2 10 -4z"/>
<path d="M940 5266 c0 -17 14 -29 23 -20 8 8 -3 34 -14 34 -5 0 -9 -6 -9 -14z"/>
<path d="M874 5228 c-10 -12 -13 -18 -6 -14 6 4 12 2 12 -3 0 -6 -6 -11 -13
-11 -14 0 -51 -39 -44 -46 2 -3 19 9 37 26 18 16 36 30 41 30 5 0 9 9 9 20 0
26 -12 25 -36 -2z"/>
<path d="M1199 5223 c-13 -16 -12 -17 4 -4 16 13 21 21 13 21 -2 0 -10 -8 -17
-17z"/>
<path d="M1110 5170 c-9 -6 -10 -10 -3 -10 6 0 15 5 18 10 8 12 4 12 -15 0z"/>
<path d="M780 5135 c0 -16 16 -20 24 -6 3 5 -1 11 -9 15 -9 3 -15 0 -15 -9z"/>
<path d="M5859 4594 c-7 -8 -6 -13 3 -16 7 -3 13 -11 13 -19 0 -8 5 -15 10
-16 6 -1 9 5 7 14 -2 8 1 12 7 8 14 -8 14 -45 1 -45 -15 0 0 -31 42 -84 21
-27 38 -52 38 -57 0 -5 13 -15 30 -24 16 -8 39 -25 51 -38 12 -12 19 -17 15
-10 -3 6 -2 14 2 17 5 3 9 -7 8 -22 0 -15 4 -27 9 -28 19 -2 45 -16 45 -26 0
-5 -6 -6 -12 -2 -20 12 65 -87 109 -126 34 -31 35 -32 13 -5 -13 17 -42 49
-64 73 -22 23 -36 42 -32 42 17 0 146 -142 139 -152 -3 -7 -1 -8 5 -4 6 4 19
-5 28 -19 9 -14 20 -25 25 -25 13 0 -26 74 -82 154 -27 38 -49 74 -49 80 0 12
-40 42 -51 39 -4 -1 -6 4 -5 11 1 14 -185 210 -242 255 -17 14 -29 28 -27 31
8 12 -25 7 -36 -6z"/>
<path d="M1910 4376 c-1 -35 147 -296 363 -640 21 -33 30 -62 31 -91 1 -24 4
-38 8 -32 11 18 9 53 -4 84 -14 29 -127 219 -218 363 -30 47 -82 139 -117 205
-34 66 -62 116 -63 111z"/>
<path d="M1563 4310 c-3 -11 -10 -19 -17 -18 -6 1 -21 -3 -33 -10 -18 -10 -23
-10 -23 0 0 6 -16 -3 -35 -22 -19 -19 -35 -38 -35 -42 0 -5 -22 -42 -50 -82
-27 -40 -50 -80 -50 -87 0 -15 -89 -150 -122 -186 -12 -12 -25 -20 -31 -16 -6
3 -7 2 -4 -4 4 -6 -13 -30 -38 -54 -24 -24 -41 -47 -38 -53 3 -5 2 -6 -4 -3
-11 7 -129 -131 -120 -140 6 -6 96 82 145 142 18 22 28 31 23 20 -5 -11 -22
-33 -36 -50 -14 -16 -21 -31 -16 -33 6 -2 9 -8 5 -13 -3 -5 5 -9 18 -9 52 0
201 121 262 211 141 211 185 281 203 324 12 28 28 63 37 79 21 40 10 51 -20
21 -14 -14 -34 -25 -44 -25 -21 0 -27 15 -10 25 6 3 10 1 10 -6 0 -7 11 -2 25
11 27 25 32 40 14 40 -6 0 -13 -9 -16 -20z m-273 -500 c0 -5 -5 -10 -11 -10
-5 0 -7 5 -4 10 3 6 8 10 11 10 2 0 4 -4 4 -10z"/>
<path d="M1336 4141 c-25 -33 -46 -62 -46 -66 0 -13 22 8 45 43 14 21 32 47
41 60 9 12 14 22 11 22 -3 0 -26 -27 -51 -59z"/>
<path d="M1184 3878 l-19 -23 23 19 c21 18 27 26 19 26 -2 0 -12 -10 -23 -22z"/>
<path d="M4495 1927 c-5 -70 -3 -104 8 -142 17 -53 23 -32 8 23 -7 23 -5 54 6
106 9 41 13 81 10 90 -14 37 -26 10 -32 -77z"/>
<path d="M4468 1075 c-3 -11 -9 -37 -12 -57 -4 -20 -22 -60 -42 -89 -29 -44
-31 -50 -12 -37 34 21 80 121 76 166 -2 28 -5 32 -10 17z"/>
</g>
</svg>
